<svg width="20" height="20" viewBox="0 0 20 20" fill="none" xmlns="http://www.w3.org/2000/svg">
<path fill-rule="evenodd" clip-rule="evenodd" d="M5.21995 8.22C5.36058 8.07955 5.5512 8.00066 5.74995 8.00066C5.9487 8.00066 6.13933 8.07955 6.27995 8.22L9.99995 11.94L13.72 8.22C13.7886 8.14631 13.8714 8.08721 13.9634 8.04622C14.0554 8.00523 14.1547 7.98319 14.2554 7.98141C14.3561 7.97963 14.4562 7.99816 14.5495 8.03588C14.6429 8.0736 14.7278 8.12974 14.799 8.20096C14.8702 8.27218 14.9264 8.35701 14.9641 8.4504C15.0018 8.54379 15.0203 8.64382 15.0185 8.74452C15.0168 8.84523 14.9947 8.94454 14.9537 9.03654C14.9127 9.12854 14.8536 9.21134 14.78 9.28L10.53 13.53C10.3893 13.6705 10.1987 13.7493 9.99995 13.7493C9.8012 13.7493 9.61058 13.6705 9.46995 13.53L5.21995 9.28C5.0795 9.13938 5.00061 8.94875 5.00061 8.75C5.00061 8.55125 5.0795 8.36063 5.21995 8.22Z" fill="#272729"/>
</svg>
